<svg width="156" height="172" viewBox="0 0 156 172" fill="none" xmlns="http://www.w3.org/2000/svg">
<path d="M132.092 56.9877C132.897 37.8286 130.888 29.0054 117.169 25.1772C115.214 24.6317 113.153 24.6067 111.124 24.6534C84.4268 25.2679 85.8951 -3.90237 114.191 0.441256C139.054 4.94495 156.955 27.4634 155.961 56.9877C154.469 77.0041 131.251 77.0041 132.092 56.9877Z" fill="#C685FF"/>
<path d="M23.908 56.9877C23.1025 37.8286 25.1119 29.0054 38.8312 25.1772C40.7861 24.6317 42.8468 24.6067 44.8758 24.6534C71.5732 25.2679 70.1049 -3.90237 41.8094 0.441256C16.9463 4.94495 -0.95504 27.4634 0.0394783 56.9877C1.53126 77.0041 24.7494 77.0041 23.908 56.9877Z" fill="#FED892"/>
<path d="M132.092 115.012C132.897 134.171 130.888 142.995 117.169 146.823C115.214 147.368 113.153 147.393 111.124 147.347C84.4268 146.732 85.8951 175.902 114.191 171.559C139.054 167.055 156.955 144.537 155.961 115.012C154.469 94.9959 131.251 94.9959 132.092 115.012Z" fill="#62F1FC"/>
<path d="M23.908 115.012C23.1025 134.171 25.1119 142.995 38.8312 146.823C40.7861 147.368 42.8468 147.393 44.8758 147.347C71.5732 146.732 70.1049 175.902 41.8094 171.559C16.9463 167.055 -0.95504 144.537 0.0394783 115.012C1.53126 94.9959 24.7494 94.9959 23.908 115.012Z" fill="#7A8FFF"/>
<path d="M89.5473 100.18C69.4826 96.928 70.684 70.4733 93.1517 70C103.815 68.6805 105.097 56.1397 96.9999 50.7588C94.6548 49.2004 91.6997 48.9452 88.8922 49.1591C40.1412 52.8732 41.4849 120.383 90.287 122.926C92.1672 123.024 94.1239 122.913 95.8735 122.217C105.159 118.526 105.371 106.553 96.5069 101.809C94.3934 100.678 91.9136 100.563 89.5473 100.18Z" fill="#B0F4A2"/>
</svg>
